<svg id="Layer_1" data-name="Layer 1" xmlns="http://www.w3.org/2000/svg" viewBox="0 0 56.95 56.95"><defs><style>.cls-1,.cls-3{fill:#008a13;}.cls-2,.cls-5,.cls-6,.cls-7{fill:none;}.cls-3,.cls-4,.cls-6{stroke:#008a13;}.cls-3,.cls-4,.cls-5,.cls-6,.cls-7{stroke-miterlimit:10;}.cls-3,.cls-4,.cls-5{stroke-width:3px;}.cls-4{fill:maroon;}.cls-5,.cls-7{stroke:maroon;}.cls-6,.cls-7{stroke-width:4px;}.cls-7{stroke-dasharray:2;}</style></defs><rect class="cls-1" x="30.99" y="14.83" width="14.15" height="29.09"/><path class="cls-2" d="M29.62,48.63s-7.16,7.44-13.27,0,0-27.46,0-27.46H29.62Z" transform="translate(-3.73 -5.63)"/><path class="cls-3" d="M43.19,35.82a5.58,5.58,0,0,0,4.14,1.71,5.79,5.79,0,0,0,4.15-1.71,5.61,5.61,0,0,0,1.71-4.15,5.86,5.86,0,0,0-10-4.15" transform="translate(-3.73 -5.63)"/><path class="cls-3" d="M47.33,25.93a5.05,5.05,0,0,0,.86-2.8,4.89,4.89,0,0,0-4.88-4.88,5.23,5.23,0,0,0-2.69.73" transform="translate(-3.73 -5.63)"/><path class="cls-3" d="M42.94,18.25A4.32,4.32,0,0,0,38.67,14a4.24,4.24,0,0,0-4.27,4.27V50.46a3.17,3.17,0,0,0,3.17,3.29,3.28,3.28,0,0,0,3.3-3.29,2.79,2.79,0,0,0-.49-1.71" transform="translate(-3.73 -5.63)"/><path class="cls-3" d="M44.53,45.58a5,5,0,0,0,2.32.49,5.42,5.42,0,0,0,5.37-5.37,5.48,5.48,0,0,0-1.83-4" transform="translate(-3.73 -5.63)"/><path class="cls-3" d="M40.5,50.34a4.91,4.91,0,0,0,2.69.73,5.21,5.21,0,0,0,5.24-5.25" transform="translate(-3.73 -5.63)"/><path class="cls-4" d="M37.7,34.23a4.63,4.63,0,0,1,4.63-4.63" transform="translate(-3.73 -5.63)"/><path class="cls-4" d="M39.89,45.94a4.63,4.63,0,0,0-4.63-4.63" transform="translate(-3.73 -5.63)"/><path class="cls-5" d="M21.71,35.82a5.61,5.61,0,0,1-4.15,1.71,5.78,5.78,0,0,1-4.14-1.71,5.61,5.61,0,0,1-1.71-4.15,5.86,5.86,0,0,1,10-4.15" transform="translate(-3.73 -5.63)"/><path class="cls-5" d="M17.56,25.93a5.13,5.13,0,0,1-.85-2.8,4.89,4.89,0,0,1,4.88-4.88,5.17,5.17,0,0,1,2.68.73" transform="translate(-3.73 -5.63)"/><path class="cls-5" d="M22,18.25a4.27,4.27,0,0,1,8.54,0V50.46a3.17,3.17,0,0,1-3.17,3.29A3.28,3.28,0,0,1,24,50.46a2.79,2.79,0,0,1,.49-1.71" transform="translate(-3.73 -5.63)"/><path class="cls-5" d="M20.37,45.58a5,5,0,0,1-2.32.49,5.42,5.42,0,0,1-5.37-5.37,5.48,5.48,0,0,1,1.83-4" transform="translate(-3.73 -5.63)"/><path class="cls-5" d="M24.4,50.34a4.93,4.93,0,0,1-2.69.73,5.2,5.2,0,0,1-5.24-5.25" transform="translate(-3.73 -5.63)"/><path class="cls-5" d="M25.49,28.13a4.64,4.64,0,0,1,4.64-4.64" transform="translate(-3.73 -5.63)"/><path class="cls-5" d="M22.08,44.24a4.76,4.76,0,0,1,4.76-4.76" transform="translate(-3.73 -5.63)"/><path class="cls-6" d="M32.21,60.59a26.48,26.48,0,0,1,0-53" transform="translate(-3.73 -5.63)"/><path class="cls-7" d="M32.21,7.63a26.48,26.48,0,0,1,0,53" transform="translate(-3.73 -5.63)"/></svg>